<svg width="347" height="88" viewBox="0 0 347 88" fill="none" xmlns="http://www.w3.org/2000/svg">
<path fill-rule="evenodd" clip-rule="evenodd" d="M12.6481 8.55568C12.4619 8.76704 12.413 15.8424 12.413 42.5827V76.3428H16.8327H21.2525V48.5137V20.6846H21.8168C22.1271 20.6846 22.381 20.7693 22.381 20.8727C22.381 20.9761 22.5452 21.0607 22.746 21.0607C22.9469 21.0607 23.1634 21.1453 23.2273 21.2487C23.2913 21.3522 23.5077 21.4368 23.7086 21.4368C23.9095 21.4368 24.0737 21.5214 24.0737 21.6248C24.0737 21.7282 24.3276 21.8128 24.6379 21.8128C24.9482 21.8128 25.2021 21.8975 25.2021 22.0009C25.2021 22.1043 25.3714 22.1889 25.5783 22.1889C25.7852 22.1889 25.9544 22.2583 25.9544 22.3429C25.9544 22.4277 26.3776 22.6122 26.8948 22.753C27.412 22.8939 27.8352 23.0783 27.8352 23.1631C27.8352 23.2477 28.0045 23.3171 28.2113 23.3171C28.4182 23.3171 28.5875 23.4017 28.5875 23.5052C28.5875 23.6086 28.7124 23.6932 28.8649 23.6932C29.0174 23.6932 29.6966 23.947 30.3742 24.2573C31.0518 24.5675 31.7141 24.8214 31.8459 24.8214C31.9777 24.8214 32.1662 24.8955 32.2644 24.9861C32.3625 25.0767 32.9932 25.3825 33.6655 25.6657C34.3379 25.9487 35.2689 26.3507 35.7344 26.5588C36.1999 26.767 36.7923 27.0212 37.0509 27.1235C37.3095 27.226 37.668 27.3845 37.8476 27.4759C38.0272 27.5673 38.3024 27.6419 38.4588 27.6419C38.6155 27.6419 38.7436 27.7113 38.7436 27.7959C38.7436 27.8807 39.1668 28.0652 39.684 28.206C40.2012 28.3468 40.6243 28.5313 40.6243 28.6161C40.6243 28.7007 40.7936 28.7701 41.0005 28.7701C41.2074 28.7701 41.3767 28.8547 41.3767 28.9581C41.3767 29.0616 41.6306 29.1462 41.9409 29.1462C42.2512 29.1462 42.5051 29.2308 42.5051 29.3342C42.5051 29.4376 42.6744 29.5223 42.8813 29.5223C43.0881 29.5223 43.2574 29.6069 43.2574 29.7103C43.2574 29.8137 43.3855 29.8983 43.5422 29.8983C43.6986 29.8983 43.9738 29.973 44.1534 30.0644C44.333 30.1557 44.7338 30.3349 45.0441 30.4624C45.3545 30.5899 45.7552 30.7691 45.9349 30.8605C46.1145 30.9519 46.3896 31.0265 46.5461 31.0265C46.7028 31.0265 46.8309 31.0927 46.8309 31.1736C46.8309 31.2544 47.2 31.4295 47.6512 31.5626C48.3936 31.7819 48.5593 31.7661 49.3909 31.397C49.8967 31.1726 50.4795 30.9248 50.6864 30.8464C50.8933 30.768 51.4302 30.5226 51.8797 30.3011C52.3291 30.0796 52.8579 29.8983 53.0552 29.8983C53.2523 29.8983 53.4135 29.8137 53.4135 29.7103C53.4135 29.6069 53.5828 29.5223 53.7897 29.5223C53.9965 29.5223 54.1658 29.4376 54.1658 29.3342C54.1658 29.2308 54.4197 29.1462 54.73 29.1462C55.0404 29.1462 55.2943 29.0616 55.2943 28.9581C55.2943 28.8547 55.4635 28.7701 55.6704 28.7701C55.8773 28.7701 56.0466 28.6855 56.0466 28.5821C56.0466 28.4787 56.2158 28.394 56.4227 28.394C56.6296 28.394 56.7989 28.3094 56.7989 28.206C56.7989 28.1026 57.0054 28.018 57.258 28.018C57.5106 28.018 57.7693 27.9334 57.8333 27.8299C57.8972 27.7265 58.1137 27.6419 58.3146 27.6419C58.5154 27.6419 58.6796 27.5573 58.6796 27.4539C58.6796 27.3505 58.8912 27.2658 59.1498 27.2658C59.4084 27.2658 59.62 27.2019 59.62 27.1239C59.62 27.0457 59.9162 26.8764 60.2783 26.7478C60.6403 26.619 61.2328 26.4084 61.5948 26.2796C61.9569 26.151 62.2531 25.9818 62.2531 25.9035C62.2531 25.8255 62.3682 25.7616 62.5087 25.7616C62.6494 25.7616 63.4321 25.4605 64.2484 25.0925C65.7327 24.4235 66.1265 24.2528 67.096 23.8592C67.3804 23.7438 67.7601 23.5745 67.9397 23.4832C68.1193 23.3918 68.3945 23.3171 68.551 23.3171C68.7076 23.3171 68.8357 23.2325 68.8357 23.1291C68.8357 23.0257 68.9999 22.9411 69.2008 22.9411C69.4017 22.9411 69.6181 22.8564 69.6821 22.753C69.746 22.6496 70.0048 22.565 70.2574 22.565C70.51 22.565 70.7165 22.4804 70.7165 22.377C70.7165 22.2735 70.8858 22.1889 71.0926 22.1889C71.2995 22.1889 71.4688 22.1043 71.4688 22.0009C71.4688 21.8975 71.6804 21.8128 71.939 21.8128C72.1976 21.8128 72.4092 21.7282 72.4092 21.6248C72.4092 21.5214 72.5734 21.4368 72.7742 21.4368C72.9751 21.4368 73.1916 21.3522 73.2555 21.2487C73.3195 21.1453 73.5782 21.0607 73.8308 21.0607C74.0834 21.0607 74.2899 20.9761 74.2899 20.8727C74.2899 20.7693 74.4592 20.6846 74.6661 20.6846C75.0405 20.6846 75.0422 20.8101 75.0422 48.5137V76.3428H79.0859H83.1295V42.5773C83.1295 11.2893 83.1064 8.78866 82.8154 8.49777C82.5871 8.26931 82.4803 8.24731 82.4236 8.4171C82.3808 8.54553 82.099 8.65045 81.7974 8.65045C81.4957 8.65045 81.2487 8.73507 81.2487 8.83849C81.2487 8.94191 81.0845 9.02652 80.8837 9.02652C80.6828 9.02652 80.4663 9.11114 80.4024 9.21456C80.3385 9.31798 80.0797 9.40259 79.8271 9.40259C79.5745 9.40259 79.368 9.48721 79.368 9.59063C79.368 9.69404 79.2399 9.77866 79.0832 9.77866C78.9268 9.77866 78.6516 9.85632 78.472 9.95127C77.8365 10.2875 76.3605 10.9069 76.1955 10.9069C76.1034 10.9069 75.5312 11.1267 74.9239 11.3954C74.3166 11.6641 73.4812 12.0334 73.0674 12.2161C72.6537 12.3989 71.9766 12.6654 71.5628 12.8079C71.1491 12.9506 70.7682 13.1174 70.7165 13.1785C70.6648 13.2396 70.2205 13.4068 69.7291 13.5497C69.2376 13.6926 68.8357 13.8603 68.8357 13.9226C68.8357 13.9846 68.4126 14.1506 67.8953 14.2915C67.3781 14.4323 66.955 14.6168 66.955 14.7016C66.955 14.7862 66.7434 14.8556 66.4848 14.8556C66.2262 14.8556 66.0146 14.9402 66.0146 15.0436C66.0146 15.147 65.803 15.2317 65.5444 15.2317C65.2858 15.2317 65.0742 15.3163 65.0742 15.4197C65.0742 15.5231 64.8626 15.6077 64.604 15.6077C64.3454 15.6077 64.1338 15.6923 64.1338 15.7958C64.1338 15.8992 63.9273 15.9838 63.6747 15.9838C63.4222 15.9838 63.1634 16.0684 63.0994 16.1718C63.0355 16.2752 62.819 16.3599 62.6181 16.3599C62.4173 16.3599 62.2531 16.426 62.2531 16.5069C62.2531 16.5878 61.8512 16.7707 61.3597 16.9136C60.8683 17.0565 60.424 17.2231 60.3723 17.2839C60.3206 17.3444 59.8974 17.5354 59.4319 17.7082C58.9664 17.8811 57.8662 18.3342 56.9869 18.7154C56.1077 19.0965 55.198 19.4515 54.9651 19.5044C54.7323 19.5572 54.542 19.6597 54.542 19.7324C54.542 19.805 54.1133 19.9812 53.5897 20.1237C53.0659 20.2665 52.5954 20.4509 52.5442 20.5338C52.4929 20.6168 52.2867 20.6846 52.0859 20.6846C51.885 20.6846 51.7208 20.7693 51.7208 20.8727C51.7208 20.9761 51.5143 21.0607 51.2617 21.0607C51.0091 21.0607 50.7504 21.1453 50.6864 21.2487C50.6225 21.3522 50.406 21.4368 50.2051 21.4368C50.0043 21.4368 49.8401 21.5214 49.8401 21.6248C49.8401 21.7282 49.5862 21.8128 49.2758 21.8128C48.9655 21.8128 48.7116 21.8975 48.7116 22.0009C48.7116 22.1043 48.5423 22.1889 48.3355 22.1889C48.1286 22.1889 47.9593 22.1043 47.9593 22.0009C47.9593 21.8975 47.7054 21.8128 47.3951 21.8128C47.0848 21.8128 46.8309 21.7282 46.8309 21.6248C46.8309 21.5214 46.6616 21.4368 46.4547 21.4368C46.2478 21.4368 46.0785 21.3522 46.0785 21.2487C46.0785 21.1453 45.9081 21.0607 45.6998 21.0607C45.4916 21.0607 45.1741 20.9861 44.9945 20.8947C44.8149 20.8033 44.4141 20.6241 44.1038 20.4966C43.7934 20.3691 43.3926 20.1899 43.213 20.0985C43.0334 20.0072 42.7159 19.9325 42.5077 19.9325C42.2994 19.9325 42.129 19.8631 42.129 19.7785C42.129 19.6937 41.7058 19.5092 41.1886 19.3684C40.6714 19.2276 40.2482 19.0431 40.2482 18.9583C40.2482 18.8737 40.1269 18.8043 39.9785 18.8043C39.7261 18.8043 38.3847 18.2823 36.5358 17.4646C36.0972 17.2707 35.6106 17.112 35.4543 17.112C35.298 17.112 35.1701 17.0274 35.1701 16.924C35.1701 16.8205 34.9162 16.7359 34.6059 16.7359C34.2956 16.7359 34.0417 16.6513 34.0417 16.5479C34.0417 16.4445 33.8724 16.3599 33.6655 16.3599C33.4587 16.3599 33.2894 16.2752 33.2894 16.1718C33.2894 16.0684 33.0355 15.9838 32.7252 15.9838C32.4148 15.9838 32.1609 15.8992 32.1609 15.7958C32.1609 15.6923 31.9493 15.6077 31.6907 15.6077C31.4321 15.6077 31.2206 15.5231 31.2206 15.4197C31.2206 15.3163 31.009 15.2317 30.7504 15.2317C30.4918 15.2317 30.2802 15.147 30.2802 15.0436C30.2802 14.9402 30.0686 14.8556 29.81 14.8556C29.5514 14.8556 29.3398 14.771 29.3398 14.6675C29.3398 14.5641 29.1333 14.4795 28.8807 14.4795C28.6281 14.4795 28.3693 14.3949 28.3054 14.2915C28.2414 14.1881 28.025 14.1034 27.8241 14.1034C27.6232 14.1034 27.459 14.0188 27.459 13.9154C27.459 13.812 27.2886 13.7274 27.0802 13.7274C26.872 13.7274 26.5546 13.6497 26.375 13.5548C25.6981 13.1967 24.2584 12.5992 24.0731 12.5992C23.9672 12.5992 23.7334 12.5241 23.5538 12.4326C23.3742 12.341 22.7618 12.0783 22.1929 11.8491C21.624 11.6199 20.7124 11.2295 20.167 10.9815C19.6215 10.7337 19.0503 10.5308 18.8974 10.5308C18.7445 10.5308 18.6195 10.4462 18.6195 10.3428C18.6195 10.2393 18.413 10.1547 18.1604 10.1547C17.9078 10.1547 17.649 10.0701 17.5851 9.96669C17.5211 9.86328 17.3046 9.77866 17.1038 9.77866C16.9029 9.77866 16.7387 9.69404 16.7387 9.59063C16.7387 9.48721 16.5322 9.40259 16.2796 9.40259C16.027 9.40259 15.7682 9.31798 15.7043 9.21456C15.6403 9.11114 15.3816 9.02652 15.129 9.02652C14.8764 9.02652 14.6699 8.94191 14.6699 8.83849C14.6699 8.73507 14.416 8.65045 14.1056 8.65045C13.7953 8.65045 13.5414 8.56584 13.5414 8.46242C13.5414 8.18338 12.9187 8.24825 12.6481 8.55568ZM91.0287 39.5821V55.0949H94.226H97.4233V50.4709C97.4233 47.9276 97.2903 42.9321 97.128 39.3696C96.9655 35.8071 96.8634 32.7999 96.901 32.6869C96.9388 32.5739 98.437 36.5329 100.231 41.4848C102.024 46.4365 103.87 51.5245 104.333 52.7915L105.175 55.0949L107.364 55.094L109.554 55.093L113.684 43.7254C115.955 37.4733 117.841 32.3858 117.875 32.42C117.91 32.4541 117.807 35.2552 117.648 38.6445C117.489 42.0339 117.359 47.1217 117.359 49.9508V55.0949H120.557H123.754V39.5821V24.0693H119.547H115.341L114.781 25.6205C114.474 26.4737 112.706 31.4658 110.854 36.7138C109.001 41.9618 107.442 46.2562 107.389 46.2565C107.337 46.2569 105.519 41.265 103.349 35.1633L99.4048 24.0693H95.2168H91.0287V39.5821ZM129.772 39.5821V55.0949H132.97H136.167V39.5821V24.0693H132.97H129.772V39.5821ZM141.997 39.5821V55.0949H152.065H162.132L162.08 52.5094L162.027 49.924L155.304 49.8745L148.58 49.8252V36.9472V24.0693H145.289H141.997V39.5821ZM165.695 39.5838V55.0983L175.71 55.0496L185.725 55.0009V52.4624V49.924L178.907 49.8747L172.089 49.8252V36.9473V24.0693H168.892H165.695V39.5838ZM189.392 39.5821V55.0949H199.831H210.269V52.4624V49.8299H203.024H195.78L195.83 45.7402L195.881 41.6505L202.04 41.6008L208.2 41.5514V39.1094V36.6675H201.993H195.787V33.0031V29.3387L202.981 29.2895L210.175 29.2402L210.227 26.6547L210.279 24.0693H199.836H189.392V39.5821ZM214.03 39.5776V55.0949H217.226H220.422L220.47 44.9531L220.519 34.8111L226.721 44.9531L232.922 55.0949H236.077H239.232V39.5821V24.0693H236.037H232.841L232.793 34.1281L232.744 44.187L226.623 34.1752L220.502 24.1633L217.266 24.1118L214.03 24.0604V39.5776ZM244.875 39.5821V55.0949H248.07H251.266L251.315 44.9318L251.363 34.769L257.57 44.9317L263.776 55.0945L266.974 55.0477L270.171 55.0009L270.219 39.5351L270.267 24.0693H267.07H263.874L263.825 34.2588L263.776 44.4486L257.57 34.2658L251.363 24.0832L248.119 24.0762L244.875 24.0693V39.5821ZM276.141 39.5351L276.189 55.0009H279.387H282.584L282.632 39.5351L282.68 24.0693H279.387H276.093L276.141 39.5351ZM297.84 24.2227C297.762 24.3489 289.779 45.6227 286.801 53.6418L286.258 55.1034L289.668 55.052L293.079 55.0009L294.132 51.8983L295.185 48.7958L300.831 48.7461L306.476 48.6963L307.521 51.8487L308.565 55.0009L311.998 55.0522C315.213 55.1002 315.424 55.0823 315.323 54.7702C315.263 54.5868 312.654 47.6252 309.525 39.3L303.837 24.1633L300.888 24.1116C299.267 24.0832 297.895 24.1332 297.84 24.2227ZM318.412 39.5821V55.0949H328.386H338.359L338.307 52.5094L338.254 49.924L331.531 49.8745L324.807 49.8252V36.9472V24.0693H321.61H318.412V39.5821ZM298.91 37.7121L297.004 43.4368H300.856H304.708L304.575 43.0137C304.502 42.7809 303.626 40.2048 302.629 37.289L300.817 31.9874L298.91 37.7121ZM33.6655 56.5992V76.3428H35.6403H37.6151V70.4614C37.6151 64.8018 37.6294 64.5681 37.9934 64.2563C38.2016 64.0782 38.4978 63.9325 38.6516 63.9325C38.8057 63.9325 38.9317 63.8479 38.9317 63.7445C38.9317 63.6411 39.1432 63.5564 39.4019 63.5564C39.6605 63.5564 39.872 63.4718 39.872 63.3684C39.872 63.265 40.0413 63.1804 40.2482 63.1804C40.4551 63.1804 40.6243 63.0958 40.6243 62.9923C40.6243 62.8889 40.7936 62.8043 41.0005 62.8043C41.2074 62.8043 41.3767 62.7197 41.3767 62.6163C41.3767 62.5128 41.6306 62.4282 41.9409 62.4282H42.5051V69.3855V76.3428H43.2574H44.0097V66.2043C44.0097 60.6282 44.0611 55.932 44.1239 55.7684C44.1867 55.6048 44.356 55.471 44.5 55.471C44.6441 55.471 44.762 55.3864 44.762 55.2829C44.762 55.1795 44.8818 55.0949 45.0285 55.0949C45.175 55.0949 45.323 55.0315 45.3577 54.9539C45.3921 54.8762 45.8011 54.559 46.2666 54.2487C46.7321 53.9385 47.2249 53.579 47.3614 53.4496C47.4981 53.3204 47.6887 53.2146 47.7846 53.2146C47.8807 53.2146 47.9593 53.0876 47.9593 52.9325C47.9593 52.7774 48.0439 52.6505 48.1474 52.6505C48.2681 52.6505 48.3355 50.8284 48.3355 47.5602C48.3355 42.0463 48.3148 41.9325 47.3144 41.9325C47.0485 41.9325 46.8309 41.8479 46.8309 41.7445C46.8309 41.6411 46.6605 41.5564 46.4521 41.5564C46.2439 41.5564 45.8841 41.4587 45.6527 41.3391C44.7539 40.8744 44.5675 40.8043 44.2316 40.8043C44.0406 40.8043 43.8269 40.747 43.7569 40.6768C43.6868 40.6069 43.1015 40.3628 42.456 40.1343C41.8107 39.9061 40.8171 39.536 40.2482 39.3121C39.6793 39.0879 38.8329 38.7794 38.3674 38.6263C37.9019 38.4732 37.3941 38.2803 37.239 38.1976C37.0838 38.1147 36.5549 37.9296 36.0635 37.7864C35.5721 37.6429 35.1701 37.4595 35.1701 37.3787C35.1701 37.2978 34.9162 37.2317 34.6059 37.2317C34.2956 37.2317 34.0417 37.147 34.0417 37.0436C34.0417 36.9402 33.9571 36.8556 33.8536 36.8556C33.7295 36.8556 33.6655 43.5622 33.6655 56.5992ZM64.2185 37.383C64.1203 37.4663 63.4474 37.7245 62.7233 37.9569C61.446 38.3666 61.1782 38.4644 60.1842 38.8843C59.9256 38.9933 59.2909 39.2308 58.7737 39.4119C58.2565 39.5928 57.7487 39.797 57.6452 39.8654C57.5418 39.9341 56.8017 40.1945 56.0005 40.4442C55.1993 40.6939 54.5435 40.9619 54.5429 41.0393C54.5423 41.1168 54.2881 41.1804 53.9777 41.1804C53.6674 41.1804 53.4135 41.265 53.4135 41.3684C53.4135 41.4718 53.2019 41.5564 52.9433 41.5564C52.6847 41.5564 52.4731 41.6411 52.4731 41.7445C52.4731 41.8479 52.2828 41.9351 52.05 41.9385C51.8171 41.9417 51.4786 42.0568 51.2977 42.1942C50.9885 42.4289 50.9685 43.4718 50.9685 59.3934V76.3428H51.6268H52.2851V70.3257C52.2851 65.1025 52.3223 64.3086 52.5672 64.3086C52.7223 64.3086 52.8493 64.224 52.8493 64.1205C52.8493 64.0171 53.0609 63.9325 53.3195 63.9325C53.5781 63.9325 53.7897 63.8479 53.7897 63.7445C53.7897 63.6411 53.9589 63.5564 54.1658 63.5564C54.3727 63.5564 54.542 63.4718 54.542 63.3684C54.542 63.265 54.7112 63.1804 54.9181 63.1804C55.125 63.1804 55.2943 63.0958 55.2943 62.9923C55.2943 62.8889 55.4635 62.8043 55.6704 62.8043C55.8773 62.8043 56.0466 62.7197 56.0466 62.6163C56.0466 62.5128 56.2582 62.4282 56.5168 62.4282H56.9869V69.3855V76.3428H59.3225C60.607 76.3428 61.7919 76.2914 61.9555 76.2286C62.2219 76.1265 62.2538 74.9985 62.2595 65.4637L62.2661 54.8128L63.8111 53.7787L65.3563 52.7445L65.4054 44.9881L65.4545 37.2317H64.9258C64.6351 37.2317 64.3166 37.2997 64.2185 37.383ZM30.0921 53.6371C29.7301 53.8659 29.2698 54.2029 29.0692 54.386C28.8687 54.569 28.6123 54.7188 28.4995 54.7188C28.3866 54.7188 28.1724 54.8881 28.0233 55.0949C27.8741 55.3017 27.64 55.471 27.503 55.471C27.3659 55.471 27.0462 55.6787 26.7923 55.9326L26.3306 56.394V66.562V76.7301L28.7285 76.6775C30.5061 76.6384 31.1216 76.5641 31.1077 76.3898C31.0974 76.2606 31.0763 70.9932 31.0607 64.6846C31.0451 58.3761 30.9689 53.2161 30.8914 53.2178C30.8139 53.2194 30.4541 53.408 30.0921 53.6371ZM69.33 53.6796C69.0328 53.9349 68.6307 54.1944 68.4366 54.2561C68.2423 54.3178 68.0834 54.4368 68.0834 54.5206C68.0834 54.6045 67.8295 54.7784 67.5192 54.9069C67.2089 55.0353 66.955 55.2149 66.955 55.3057C66.955 55.3967 66.828 55.471 66.6729 55.471C66.5177 55.471 66.3907 55.5556 66.3907 55.659C66.3907 55.7624 66.2655 55.847 66.1122 55.847C65.9591 55.847 65.7874 56.0373 65.731 56.2701C65.6746 56.5029 65.6518 61.1778 65.6804 66.659L65.7325 76.6248L68.0364 76.6777L70.3403 76.7305V64.9725C70.3403 55.6913 70.2909 53.2146 70.1052 53.2147C69.976 53.2149 69.627 53.424 69.33 53.6796ZM109.174 60.6985C107.78 61.1806 107.028 61.7996 106.525 62.8797C106.026 63.9502 105.982 64.4331 106.283 65.5308C106.545 66.4885 107.946 67.8728 109.086 68.3007C109.55 68.4748 110.665 68.8806 111.562 69.2024C113.67 69.9579 114.162 70.4013 114.162 71.5475C114.162 72.2056 114.056 72.5172 113.716 72.8572C113.134 73.4393 112.063 73.7234 110.984 73.5824C109.461 73.3837 108.577 72.7188 108.349 71.6026L108.224 70.9838L106.936 70.9276L105.648 70.8713L105.744 71.731C106.002 74.0149 108.446 75.6354 111.623 75.629C113.564 75.625 115.001 75.1108 115.924 74.0895C116.668 73.2658 116.88 72.477 116.756 70.9887C116.605 69.167 115.43 68.0952 112.437 67.0499C109.955 66.1829 109.181 65.7487 108.897 65.0643C108.339 63.7157 109.296 62.599 111.125 62.4666C112.882 62.3395 114.162 63.1911 114.162 64.4872C114.162 64.839 114.277 64.8727 115.479 64.8727C116.79 64.8727 116.795 64.8708 116.791 64.3556C116.779 62.9081 115.253 61.1509 113.575 60.6524C112.286 60.2698 110.356 60.2899 109.174 60.6985ZM122.13 60.5646C121.052 60.8769 119.735 61.91 119.275 62.8043C118.93 63.4739 118.854 63.8753 118.911 64.7288C119.037 66.6549 120.476 67.9294 123.738 69.0044C126.17 69.8059 126.951 70.4428 126.951 71.6257C126.951 73.1011 125.559 73.8618 123.479 73.5236C122.169 73.3101 121.402 72.6872 121.108 71.5955L120.914 70.873L119.654 70.9283L118.394 70.9838L118.451 71.5479C118.749 74.4788 122.537 76.3375 126.337 75.4171C129.021 74.7667 130.334 72.1801 129.184 69.805C128.535 68.466 127.584 67.8925 123.793 66.5548C122.255 66.012 121.497 65.3161 121.497 64.4466C121.497 63.088 122.658 62.331 124.533 62.4666C125.575 62.542 125.751 62.618 126.32 63.2387C126.686 63.638 126.951 64.1254 126.951 64.3998C126.951 64.8606 126.985 64.8727 128.292 64.8727H129.632L129.506 64.0735C129.264 62.545 128.046 61.235 126.333 60.6613C125.358 60.3345 123.103 60.2828 122.13 60.5646ZM159.324 60.7211C157.288 61.4239 156.079 63.3757 156.505 65.2726C156.875 66.9172 158.214 67.9892 161.087 68.9397C163.185 69.6339 163.949 70.0536 164.28 70.6942C164.689 71.4849 164.635 72.0958 164.099 72.7327C163.304 73.6768 161.202 73.9083 159.809 73.2052C159.198 72.8968 158.55 71.923 158.549 71.3128C158.548 70.9144 158.471 70.8898 157.231 70.8898C155.762 70.8898 155.741 70.9152 156.118 72.2728C156.935 75.2127 161.935 76.6534 165.185 74.8849C167.351 73.7063 167.804 70.8477 166.12 68.9842C165.328 68.1076 164.332 67.5713 162.178 66.861C159.51 65.9813 158.712 65.175 159.158 63.8103C159.488 62.7983 160.329 62.3865 161.884 62.4739C163.315 62.5542 163.983 62.9882 164.372 64.0906L164.649 64.8727H165.924C166.626 64.8727 167.199 64.8035 167.199 64.7189C167.199 64.01 166.526 62.5488 165.903 61.9074C164.479 60.4407 161.626 59.9262 159.324 60.7211ZM177.199 60.7634C175.113 61.7957 174.705 64.5624 176.316 66.7462L176.775 67.3677L175.591 68.5175C174.168 69.9 173.837 70.8129 174.178 72.4059C174.797 75.2896 178.566 76.553 181.917 75L182.811 74.5858L183.255 75.0028C183.643 75.3674 183.869 75.4131 185.05 75.3644L186.4 75.3086L185.38 74.1052L184.36 72.9017L184.704 72.3188C185.124 71.6058 185.631 69.7191 185.631 68.8665V68.2385L184.549 68.2949C183.501 68.3496 183.466 68.3684 183.409 68.9154C183.316 69.8167 182.997 70.8898 182.823 70.8898C182.734 70.8898 182.048 70.1662 181.297 69.2821L179.932 67.6744L180.383 67.3681C180.632 67.1998 181.227 66.6752 181.707 66.2023C183.104 64.8259 183.342 63.2845 182.381 61.8382C181.443 60.4279 178.93 59.9067 177.199 60.7634ZM223.875 60.6184C222.229 61.1562 221.024 62.347 220.265 64.1854C219.383 66.3205 219.486 70.3426 220.472 72.3C221.765 74.8656 224.33 76.1145 227.112 75.532C230.307 74.8627 231.862 72.655 232.04 68.5358C232.208 64.6412 231.044 62.1039 228.53 60.8871C227.476 60.3768 225.044 60.2363 223.875 60.6184ZM306.444 60.5646C305.396 60.8683 304.072 61.9096 303.596 62.8043C303.221 63.5081 303.162 63.8359 303.24 64.7525C303.409 66.7201 304.679 67.8389 308.068 69.0064C310.619 69.8849 311.266 70.4204 311.266 71.6534C311.266 72.5828 310.702 73.2182 309.62 73.5097C308.945 73.6911 308.478 73.6731 307.189 73.4158C306.495 73.2772 305.642 72.4104 305.431 71.6282L305.233 70.8898H304.017H302.802V71.5184C302.802 73.7172 305.446 75.6241 308.528 75.6469C312.008 75.6728 314.059 73.9842 313.862 71.2561C313.709 69.1553 312.586 68.117 309.194 66.9411C306.369 65.962 305.811 65.5342 305.811 64.3464C305.811 63.0888 307.029 62.335 308.847 62.4666C309.89 62.542 310.066 62.618 310.635 63.2387C311.001 63.638 311.266 64.1254 311.266 64.3998C311.266 64.8606 311.299 64.8727 312.606 64.8727H313.947L313.82 64.0735C313.579 62.545 312.361 61.235 310.648 60.6613C309.672 60.3345 307.417 60.2828 306.444 60.5646ZM96.3947 61.3403C96.2201 61.7761 95.116 64.679 93.9409 67.791C92.7658 70.9029 91.6311 73.8885 91.4193 74.4258L91.0341 75.4026H92.399H93.7639L94.3456 73.7573L94.9273 72.112L97.8406 72.0603L100.754 72.0088L101.361 73.7056L101.968 75.4026H103.291C104.496 75.4026 104.606 75.3708 104.521 75.0474C104.47 74.8518 103.221 71.5095 101.744 67.62L99.0607 60.5479H97.8863H96.7118L96.3947 61.3403ZM131.841 67.9752V75.4026H136.835H141.829L141.772 74.4154L141.715 73.4282L138.095 73.3771L134.474 73.3261V71.0737V68.8214H137.577H140.681V67.7872V66.753H137.577H134.474V64.6846V62.6163H138.048H141.621V61.5821V60.5479H136.731H131.841V67.9752ZM142.938 61.5821V62.6163H145.289H147.64V69.0094V75.4026H148.956H150.273V69.0094V62.6163H152.624H154.974V61.5821V60.5479H148.956H142.938V61.5821ZM193.342 67.9752V75.4026H194.658H195.975V72.6761V69.9496H198.004C201.472 69.9496 203.267 69.2187 204.15 67.4476C205.057 65.6278 204.721 63.4521 203.315 62.0469C202.008 60.7399 201.185 60.5479 196.894 60.5479H193.342V67.9752ZM206.883 67.9752V75.4026H208.2H209.516V72.5821V69.7616H210.994H212.471L213.93 72.5821L215.389 75.4026H216.779C217.543 75.4026 218.168 75.3499 218.168 75.2854C218.168 75.221 217.438 73.821 216.546 72.1744C215.655 70.5278 214.956 69.16 214.995 69.135C216.369 68.2407 216.707 67.9134 217.127 67.071C217.996 65.3281 217.701 63.2279 216.405 61.9326C215.231 60.7589 214.291 60.5479 210.235 60.5479H206.883V67.9752ZM234.719 67.9752V75.4026H236.035H237.352V72.7005V69.9987L239.844 69.9086C243.233 69.7864 244.581 69.1828 245.443 67.4023C246.329 65.5722 245.863 63.1883 244.352 61.8277C243.154 60.7495 242.18 60.5479 238.164 60.5479H234.719V67.9752ZM248.26 67.9752V75.4026H253.16H258.06L258.003 74.4154L257.946 73.4282L254.326 73.3771L250.705 73.3261V71.0737V68.8214H253.808H256.912V67.7872V66.753H253.808H250.705V64.6846V62.6163H254.279H257.852V61.5821V60.5479H253.056H248.26V67.9752ZM260.109 67.9583V75.4026H261.425H262.742V72.5821V69.7616L264.2 69.7651L265.657 69.7689L267.123 72.5857L268.588 75.4026H269.991C270.762 75.4026 271.393 75.3635 271.393 75.3157C271.393 75.268 270.674 73.9085 269.795 72.2946C268.916 70.6809 268.201 69.3026 268.208 69.2319C268.214 69.1612 268.572 68.8475 269.003 68.5346C270.544 67.4155 271.087 65.9219 270.672 63.9412C270.405 62.6682 269.682 61.7447 268.462 61.1188C267.583 60.6675 267.358 60.6415 263.823 60.5793L260.109 60.5139V67.9583ZM271.77 61.5821V62.6163H274.027H276.283V69.0094V75.4026H277.6H278.916V69.0094V62.6163H281.267H283.618V61.5821V60.5479H277.694H271.77V61.5821ZM285.687 67.9752V75.4026H287.004H288.32V67.9752V60.5479H287.004H285.687V67.9752ZM291.518 67.9752V75.4026H296.408H301.298V74.3684V73.3342H297.724H294.151V71.0778V68.8214H297.254H300.357V67.7872V66.753H297.254H294.151V64.6846V62.6163H297.724H301.298V61.5821V60.5479H296.408H291.518V67.9752ZM178.559 62.5081C178.238 62.648 177.921 62.9057 177.854 63.0809C177.587 63.7755 177.739 64.7958 178.212 65.4919L178.692 66.1983L179.265 65.8646C180.658 65.0539 181.175 63.6145 180.365 62.8043C180.158 62.5975 179.911 62.4282 179.816 62.4282C179.721 62.4282 179.53 62.3889 179.393 62.341C179.255 62.2932 178.88 62.3682 178.559 62.5081ZM224.799 62.6287C223.844 62.9196 222.923 63.9733 222.573 65.1764C222.104 66.7914 222.254 70.3005 222.845 71.506C223.427 72.6951 224.328 73.3669 225.489 73.4784C228.278 73.7464 229.576 71.7777 229.414 67.5221C229.342 65.632 229.265 65.2143 228.834 64.3751C228.54 63.8016 228.076 63.246 227.697 63.0115C226.935 62.5411 225.646 62.3707 224.799 62.6287ZM196.017 65.2017L196.069 67.7872L197.574 67.8457C199.702 67.9284 200.597 67.7592 201.286 67.1438C201.792 66.6919 201.881 66.4704 201.943 65.5118C201.998 64.6514 201.933 64.2727 201.65 63.8234C201.058 62.8827 200.245 62.6163 197.963 62.6163H195.964L196.017 65.2017ZM209.516 65.1765V67.737L211.35 67.6575C214.087 67.539 214.971 66.8907 214.971 65.0015C214.971 63.3173 213.867 62.6163 211.215 62.6163H209.516V65.1765ZM237.352 65.2487V67.8812L239.091 67.8801C241.261 67.8788 242.08 67.6571 242.719 66.898C243.17 66.3621 243.213 66.1827 243.146 65.1278C243.02 63.1382 242.207 62.6163 239.238 62.6163H237.352V65.2487ZM262.742 65.1765V67.737L264.576 67.6575C266.647 67.5678 267.458 67.2579 267.911 66.3832C268.567 65.1151 268.016 63.4 266.787 62.887C266.386 62.7191 265.494 62.6163 264.441 62.6163H262.742V65.1765ZM97.6407 64.3294C97.3189 65.1831 95.7306 69.7901 95.7306 69.8697C95.7306 69.9137 96.6616 69.9496 97.7994 69.9496C99.453 69.9496 99.8683 69.8964 99.8683 69.6849C99.8683 69.4113 98.0355 64.1057 97.891 63.9615C97.8464 63.9169 97.7338 64.0826 97.6407 64.3294ZM177.283 69.7621C176.738 70.3657 176.603 70.6654 176.603 71.2758C176.603 73.2925 178.453 74.2706 180.506 73.3393C180.945 73.1398 181.305 72.9247 181.305 72.8613C181.305 72.7385 178.13 69.0094 178.025 69.0094C177.991 69.0094 177.657 69.3481 177.283 69.7621Z" fill="#A0E74B"/>
</svg>
