<svg width="453" height="424" viewBox="0 0 453 424" fill="none" xmlns="http://www.w3.org/2000/svg">
<mask id="mask0_410_1584" style="mask-type:alpha" maskUnits="userSpaceOnUse" x="0" y="0" width="453" height="424">
<rect width="453" height="424" fill="#D9D9D9"/>
</mask>
<g mask="url(#mask0_410_1584)">
<path fill-rule="evenodd" clip-rule="evenodd" d="M37.25 26.4387C36.26 27.5627 36 65.1907 36 207.401V386.943H59.5H83V238.943V90.9427H86C87.65 90.9427 89 91.3927 89 91.9427C89 92.4927 89.873 92.9427 90.941 92.9427C92.009 92.9427 93.16 93.3927 93.5 93.9427C93.84 94.4927 94.991 94.9427 96.059 94.9427C97.127 94.9427 98 95.3927 98 95.9427C98 96.4927 99.35 96.9427 101 96.9427C102.65 96.9427 104 97.3927 104 97.9427C104 98.4927 104.9 98.9427 106 98.9427C107.1 98.9427 108 99.3117 108 99.7617C108 100.213 110.25 101.194 113 101.943C115.75 102.692 118 103.673 118 104.124C118 104.574 118.9 104.943 120 104.943C121.1 104.943 122 105.393 122 105.943C122 106.493 122.664 106.943 123.475 106.943C124.286 106.943 127.897 108.293 131.5 109.943C135.103 111.593 138.624 112.943 139.325 112.943C140.026 112.943 141.028 113.337 141.55 113.819C142.072 114.301 145.425 115.927 149 117.433C152.575 118.938 157.525 121.076 160 122.183C162.475 123.29 165.625 124.642 167 125.186C168.375 125.731 170.281 126.574 171.236 127.06C172.191 127.546 173.654 127.943 174.486 127.943C175.319 127.943 176 128.312 176 128.762C176 129.213 178.25 130.194 181 130.943C183.75 131.692 186 132.673 186 133.124C186 133.574 186.9 133.943 188 133.943C189.1 133.943 190 134.393 190 134.943C190 135.493 191.35 135.943 193 135.943C194.65 135.943 196 136.393 196 136.943C196 137.493 196.9 137.943 198 137.943C199.1 137.943 200 138.393 200 138.943C200 139.493 200.681 139.943 201.514 139.943C202.346 139.943 203.809 140.34 204.764 140.826C205.719 141.312 207.85 142.265 209.5 142.943C211.15 143.621 213.281 144.574 214.236 145.06C215.191 145.546 216.654 145.943 217.486 145.943C218.319 145.943 219 146.295 219 146.725C219 147.155 220.963 148.086 223.362 148.794C227.309 149.96 228.19 149.876 232.612 147.913C235.301 146.72 238.4 145.402 239.5 144.985C240.6 144.568 243.455 143.263 245.845 142.085C248.234 140.907 251.046 139.943 252.095 139.943C253.143 139.943 254 139.493 254 138.943C254 138.393 254.9 137.943 256 137.943C257.1 137.943 258 137.493 258 136.943C258 136.393 259.35 135.943 261 135.943C262.65 135.943 264 135.493 264 134.943C264 134.393 264.9 133.943 266 133.943C267.1 133.943 268 133.493 268 132.943C268 132.393 268.9 131.943 270 131.943C271.1 131.943 272 131.493 272 130.943C272 130.393 273.098 129.943 274.441 129.943C275.784 129.943 277.16 129.493 277.5 128.943C277.84 128.393 278.991 127.943 280.059 127.943C281.127 127.943 282 127.493 282 126.943C282 126.393 283.125 125.943 284.5 125.943C285.875 125.943 287 125.603 287 125.188C287 124.772 288.575 123.872 290.5 123.188C292.425 122.503 295.575 121.383 297.5 120.698C299.425 120.014 301 119.114 301 118.698C301 118.283 301.612 117.943 302.359 117.943C303.107 117.943 307.269 116.342 311.609 114.385C319.501 110.827 321.595 109.919 326.75 107.826C328.262 107.212 330.281 106.312 331.236 105.826C332.191 105.34 333.654 104.943 334.486 104.943C335.319 104.943 336 104.493 336 103.943C336 103.393 336.873 102.943 337.941 102.943C339.009 102.943 340.16 102.493 340.5 101.943C340.84 101.393 342.216 100.943 343.559 100.943C344.902 100.943 346 100.493 346 99.9427C346 99.3927 346.9 98.9427 348 98.9427C349.1 98.9427 350 98.4927 350 97.9427C350 97.3927 351.125 96.9427 352.5 96.9427C353.875 96.9427 355 96.4927 355 95.9427C355 95.3927 355.873 94.9427 356.941 94.9427C358.009 94.9427 359.16 94.4927 359.5 93.9427C359.84 93.3927 361.216 92.9427 362.559 92.9427C363.902 92.9427 365 92.4927 365 91.9427C365 91.3927 365.9 90.9427 367 90.9427C368.991 90.9427 369 91.6097 369 238.943V386.943H390.5H412V207.372C412 40.9767 411.877 27.6777 410.33 26.1307C409.116 24.9157 408.548 24.7987 408.247 25.7017C408.019 26.3847 406.521 26.9427 404.917 26.9427C403.313 26.9427 402 27.3927 402 27.9427C402 28.4927 401.127 28.9427 400.059 28.9427C398.991 28.9427 397.84 29.3927 397.5 29.9427C397.16 30.4927 395.784 30.9427 394.441 30.9427C393.098 30.9427 392 31.3927 392 31.9427C392 32.4927 391.319 32.9427 390.486 32.9427C389.654 32.9427 388.191 33.3557 387.236 33.8607C383.857 35.6487 376.009 38.9427 375.132 38.9427C374.642 38.9427 371.6 40.1117 368.371 41.5407C365.142 42.9697 360.7 44.9337 358.5 45.9057C356.3 46.8777 352.7 48.2947 350.5 49.0527C348.3 49.8117 346.275 50.6987 346 51.0237C345.725 51.3487 343.363 52.2377 340.75 52.9977C338.137 53.7577 336 54.6497 336 54.9807C336 55.3107 333.75 56.1937 331 56.9427C328.25 57.6917 326 58.6727 326 59.1237C326 59.5737 324.875 59.9427 323.5 59.9427C322.125 59.9427 321 60.3927 321 60.9427C321 61.4927 319.875 61.9427 318.5 61.9427C317.125 61.9427 316 62.3927 316 62.9427C316 63.4927 314.875 63.9427 313.5 63.9427C312.125 63.9427 311 64.3927 311 64.9427C311 65.4927 309.902 65.9427 308.559 65.9427C307.216 65.9427 305.84 66.3927 305.5 66.9427C305.16 67.4927 304.009 67.9427 302.941 67.9427C301.873 67.9427 301 68.2947 301 68.7247C301 69.1547 298.863 70.1277 296.25 70.8877C293.637 71.6477 291.275 72.5337 291 72.8567C290.725 73.1787 288.475 74.1947 286 75.1137C283.525 76.0327 277.675 78.4427 273 80.4697C268.325 82.4967 263.488 84.3847 262.25 84.6657C261.012 84.9467 260 85.4917 260 85.8787C260 86.2647 257.721 87.2017 254.937 87.9597C252.152 88.7187 249.65 89.6997 249.378 90.1407C249.105 90.5817 248.009 90.9427 246.941 90.9427C245.873 90.9427 245 91.3927 245 91.9427C245 92.4927 243.902 92.9427 242.559 92.9427C241.216 92.9427 239.84 93.3927 239.5 93.9427C239.16 94.4927 238.009 94.9427 236.941 94.9427C235.873 94.9427 235 95.3927 235 95.9427C235 96.4927 233.65 96.9427 232 96.9427C230.35 96.9427 229 97.3927 229 97.9427C229 98.4927 228.1 98.9427 227 98.9427C225.9 98.9427 225 98.4927 225 97.9427C225 97.3927 223.65 96.9427 222 96.9427C220.35 96.9427 219 96.4927 219 95.9427C219 95.3927 218.1 94.9427 217 94.9427C215.9 94.9427 215 94.4927 215 93.9427C215 93.3927 214.094 92.9427 212.986 92.9427C211.879 92.9427 210.191 92.5457 209.236 92.0597C208.281 91.5737 206.15 90.6207 204.5 89.9427C202.85 89.2647 200.719 88.3117 199.764 87.8257C198.809 87.3397 197.121 86.9427 196.014 86.9427C194.906 86.9427 194 86.5737 194 86.1237C194 85.6727 191.75 84.6917 189 83.9427C186.25 83.1937 184 82.2127 184 81.7617C184 81.3117 183.355 80.9427 182.566 80.9427C181.224 80.9427 174.092 78.1667 164.261 73.8177C161.929 72.7867 159.342 71.9427 158.511 71.9427C157.68 71.9427 157 71.4927 157 70.9427C157 70.3927 155.65 69.9427 154 69.9427C152.35 69.9427 151 69.4927 151 68.9427C151 68.3927 150.1 67.9427 149 67.9427C147.9 67.9427 147 67.4927 147 66.9427C147 66.3927 145.65 65.9427 144 65.9427C142.35 65.9427 141 65.4927 141 64.9427C141 64.3927 139.875 63.9427 138.5 63.9427C137.125 63.9427 136 63.4927 136 62.9427C136 62.3927 134.875 61.9427 133.5 61.9427C132.125 61.9427 131 61.4927 131 60.9427C131 60.3927 129.875 59.9427 128.5 59.9427C127.125 59.9427 126 59.4927 126 58.9427C126 58.3927 124.902 57.9427 123.559 57.9427C122.216 57.9427 120.84 57.4927 120.5 56.9427C120.16 56.3927 119.009 55.9427 117.941 55.9427C116.873 55.9427 116 55.4927 116 54.9427C116 54.3927 115.094 53.9427 113.986 53.9427C112.879 53.9427 111.191 53.5297 110.236 53.0247C106.637 51.1207 98.982 47.9427 97.997 47.9427C97.434 47.9427 96.191 47.5437 95.236 47.0567C94.281 46.5697 91.025 45.1727 88 43.9537C84.975 42.7347 80.128 40.6587 77.228 39.3397C74.328 38.0217 71.291 36.9427 70.478 36.9427C69.665 36.9427 69 36.4927 69 35.9427C69 35.3927 67.902 34.9427 66.559 34.9427C65.216 34.9427 63.84 34.4927 63.5 33.9427C63.16 33.3927 62.009 32.9427 60.941 32.9427C59.873 32.9427 59 32.4927 59 31.9427C59 31.3927 57.902 30.9427 56.559 30.9427C55.216 30.9427 53.84 30.4927 53.5 29.9427C53.16 29.3927 51.784 28.9427 50.441 28.9427C49.098 28.9427 48 28.4927 48 27.9427C48 27.3927 46.65 26.9427 45 26.9427C43.35 26.9427 42 26.4927 42 25.9427C42 24.4587 38.689 24.8037 37.25 26.4387ZM454 191.443V273.943H471H488V249.352C488 235.826 487.293 209.259 486.43 190.313C485.566 171.367 485.023 155.374 485.223 154.773C485.424 154.172 493.39 175.227 502.927 201.562C512.463 227.896 522.279 254.955 524.74 261.693L529.214 273.943L540.857 273.938L552.5 273.933L574.457 213.478C586.533 180.228 596.562 153.172 596.744 153.354C596.926 153.535 596.383 168.432 595.537 186.457C594.692 204.482 594 231.54 594 246.586V273.943H611H628V191.443V108.943H605.633H583.267L580.292 117.193C578.657 121.73 569.259 148.279 559.409 176.189C549.559 204.099 541.271 226.937 540.99 226.939C540.71 226.941 531.043 200.393 519.508 167.943L498.536 108.943H476.268H454V191.443ZM660 191.443V273.943H677H694V191.443V108.943H677H660V191.443ZM725 191.443V273.943H778.528H832.056L831.778 260.193L831.5 246.443L795.75 246.18L760 245.918V177.43V108.943H742.5H725V191.443ZM851 191.452V273.961L904.25 273.702L957.5 273.443V259.943V246.443L921.25 246.181L885 245.918V177.431V108.943H868H851V191.452ZM977 191.443V273.943H1032.5H1088V259.943V245.943H1049.48H1010.96L1011.23 224.193L1011.5 202.443L1044.25 202.179L1077 201.916V188.929V175.943H1044H1011V156.455V136.967L1049.25 136.705L1087.5 136.443L1087.78 122.693L1088.06 108.943H1032.53H977V191.443ZM1108 191.419V273.943H1124.99H1141.98L1142.24 220.007L1142.5 166.07L1175.47 220.007L1208.45 273.943H1225.22H1242V191.443V108.943H1225.01H1208.02L1207.76 162.438L1207.5 215.933L1174.95 162.688L1142.41 109.443L1125.2 109.169L1108 108.896V191.419ZM1272 191.443V273.943H1288.99H1305.98L1306.24 219.894L1306.5 165.846L1339.5 219.893L1372.5 273.941L1389.5 273.692L1406.5 273.443L1406.76 191.193L1407.01 108.943H1390.01H1373.02L1372.76 163.133L1372.5 217.324L1339.5 163.17L1306.5 109.017L1289.25 108.98L1272 108.943V191.443ZM1438.24 191.193L1438.5 273.443H1455.5H1472.5L1472.76 191.193L1473.01 108.943H1455.5H1437.99L1438.24 191.193ZM1553.61 109.759C1553.2 110.43 1510.76 223.568 1494.92 266.215L1492.03 273.988L1510.17 273.715L1528.3 273.443L1533.9 256.943L1539.5 240.443L1569.52 240.179L1599.54 239.914L1605.09 256.679L1610.64 273.443L1628.9 273.716C1645.99 273.971 1647.11 273.876 1646.57 272.216C1646.26 271.241 1632.39 234.218 1615.75 189.943L1585.5 109.443L1569.82 109.168C1561.2 109.017 1553.91 109.283 1553.61 109.759ZM1663 191.443V273.943H1716.03H1769.06L1768.78 260.193L1768.5 246.443L1732.75 246.18L1697 245.918V177.43V108.943H1680H1663V191.443ZM1559.31 181.498L1549.17 211.943H1569.65H1590.14L1589.43 209.693C1589.04 208.455 1584.38 194.755 1579.08 179.248L1569.44 151.053L1559.31 181.498ZM149 281.943V386.943H159.5H170V355.665C170 325.566 170.076 324.323 172.011 322.665C173.118 321.718 174.693 320.943 175.511 320.943C176.33 320.943 177 320.493 177 319.943C177 319.393 178.125 318.943 179.5 318.943C180.875 318.943 182 318.493 182 317.943C182 317.393 182.9 316.943 184 316.943C185.1 316.943 186 316.493 186 315.943C186 315.393 186.9 314.943 188 314.943C189.1 314.943 190 314.493 190 313.943C190 313.393 191.35 312.943 193 312.943H196V349.943V386.943H200H204V333.025C204 303.37 204.273 278.395 204.607 277.525C204.941 276.655 205.841 275.943 206.607 275.943C207.373 275.943 208 275.493 208 274.943C208 274.393 208.637 273.943 209.417 273.943C210.196 273.943 210.983 273.606 211.167 273.193C211.35 272.78 213.525 271.093 216 269.443C218.475 267.793 221.095 265.881 221.821 265.193C222.548 264.506 223.561 263.943 224.071 263.943C224.582 263.943 225 263.268 225 262.443C225 261.618 225.45 260.943 226 260.943C226.642 260.943 227 251.253 227 233.872C227 204.548 226.89 203.943 221.571 203.943C220.157 203.943 219 203.493 219 202.943C219 202.393 218.094 201.943 216.986 201.943C215.879 201.943 213.966 201.423 212.736 200.787C207.957 198.316 206.966 197.943 205.18 197.943C204.164 197.943 203.028 197.638 202.656 197.265C202.283 196.893 199.171 195.595 195.739 194.38C192.308 193.166 187.025 191.198 184 190.007C180.975 188.815 176.475 187.174 174 186.36C171.525 185.546 168.825 184.52 168 184.08C167.175 183.639 164.363 182.655 161.75 181.893C159.137 181.13 157 180.155 157 179.725C157 179.295 155.65 178.943 154 178.943C152.35 178.943 151 178.493 151 177.943C151 177.393 150.55 176.943 150 176.943C149.34 176.943 149 212.61 149 281.943ZM311.45 179.748C310.928 180.191 307.35 181.564 303.5 182.8C296.709 184.979 295.285 185.499 290 187.732C288.625 188.312 285.25 189.575 282.5 190.538C279.75 191.5 277.05 192.586 276.5 192.95C275.95 193.315 272.015 194.7 267.755 196.028C263.495 197.356 260.008 198.781 260.005 199.193C260.002 199.605 258.65 199.943 257 199.943C255.35 199.943 254 200.393 254 200.943C254 201.493 252.875 201.943 251.5 201.943C250.125 201.943 249 202.393 249 202.943C249 203.493 247.988 203.957 246.75 203.975C245.512 203.992 243.712 204.604 242.75 205.335C241.106 206.583 241 212.129 241 296.803V386.943H244.5H248V354.943C248 327.165 248.198 322.943 249.5 322.943C250.325 322.943 251 322.493 251 321.943C251 321.393 252.125 320.943 253.5 320.943C254.875 320.943 256 320.493 256 319.943C256 319.393 256.9 318.943 258 318.943C259.1 318.943 260 318.493 260 317.943C260 317.393 260.9 316.943 262 316.943C263.1 316.943 264 316.493 264 315.943C264 315.393 264.9 314.943 266 314.943C267.1 314.943 268 314.493 268 313.943C268 313.393 269.125 312.943 270.5 312.943H273V349.943V386.943H285.418C292.248 386.943 298.548 386.67 299.418 386.336C300.834 385.793 301.004 379.794 301.034 329.086L301.069 272.443L309.284 266.943L317.5 261.443L317.761 220.193L318.022 178.943H315.211C313.665 178.943 311.972 179.305 311.45 179.748ZM130 266.19C128.075 267.407 125.628 269.199 124.561 270.173C123.495 271.146 122.132 271.943 121.532 271.943C120.932 271.943 119.793 272.843 119 273.943C118.207 275.043 116.962 275.943 116.234 275.943C115.505 275.943 113.805 277.048 112.455 278.398L110 280.852V334.927V389.003L122.75 388.723C132.201 388.515 135.474 388.12 135.4 387.193C135.345 386.506 135.233 358.493 135.15 324.943C135.067 291.393 134.662 263.951 134.25 263.96C133.838 263.969 131.925 264.972 130 266.19ZM338.628 266.416C337.048 267.774 334.91 269.154 333.878 269.482C332.845 269.81 332 270.443 332 270.889C332 271.335 330.65 272.26 329 272.943C327.35 273.626 326 274.581 326 275.064C326 275.548 325.325 275.943 324.5 275.943C323.675 275.943 323 276.393 323 276.943C323 277.493 322.334 277.943 321.519 277.943C320.705 277.943 319.792 278.955 319.492 280.193C319.192 281.431 319.071 306.293 319.223 335.443L319.5 388.443L331.75 388.724L344 389.005V326.474C344 277.115 343.737 263.943 342.75 263.944C342.063 263.945 340.207 265.057 338.628 266.416ZM550.479 303.744C543.066 306.308 539.069 309.6 536.394 315.344C533.743 321.037 533.508 323.605 535.105 329.443C536.499 334.536 543.948 341.898 550.011 344.174C552.48 345.1 558.405 347.258 563.178 348.969C574.386 352.987 577 355.345 577 361.441C577 364.941 576.435 366.598 574.628 368.406C571.532 371.502 565.841 373.013 560.101 372.263C552.005 371.206 547.302 367.67 546.094 361.734L545.425 358.443L538.577 358.144L531.729 357.845L532.244 362.417C533.613 374.563 546.607 383.181 563.5 383.147C573.821 383.126 581.459 380.391 586.366 374.96C590.324 370.579 591.45 366.384 590.794 358.469C589.99 348.781 583.741 343.081 567.828 337.522C554.63 332.911 550.516 330.602 549.008 326.962C546.037 319.79 551.13 313.851 560.853 313.147C570.196 312.471 577 317 577 323.893C577 325.764 577.61 325.943 584 325.943C590.975 325.943 591 325.933 590.978 323.193C590.917 315.495 582.802 306.15 573.878 303.499C567.024 301.464 556.764 301.571 550.479 303.744ZM619.365 303.032C613.634 304.693 606.631 310.187 604.185 314.943C602.353 318.504 601.949 320.639 602.248 325.178C602.922 335.421 610.574 342.199 627.917 347.916C640.849 352.179 645 355.566 645 361.857C645 369.703 637.599 373.749 626.541 371.95C619.571 370.815 615.497 367.502 613.934 361.696L612.899 357.854L606.199 358.148L599.5 358.443L599.805 361.443C601.389 377.03 621.53 386.915 641.732 382.02C656.007 378.561 662.984 364.805 656.87 352.174C653.422 345.053 648.366 342.003 628.209 334.889C620.03 332.002 616 328.301 616 323.677C616 316.452 622.172 312.426 632.143 313.147C637.685 313.548 638.62 313.952 641.645 317.253C643.592 319.377 645 321.969 645 323.428C645 325.879 645.18 325.943 652.128 325.943H659.256L658.584 321.693C657.299 313.564 650.823 306.597 641.715 303.546C636.527 301.808 624.539 301.533 619.365 303.032ZM817.127 303.864C806.299 307.602 799.873 317.982 802.14 328.07C804.105 336.816 811.226 342.517 826.5 347.572C837.656 351.264 841.717 353.496 843.479 356.903C845.654 361.108 845.364 364.357 842.514 367.744C838.289 372.765 827.112 373.996 819.706 370.257C816.458 368.617 813.009 363.438 813.004 360.193C813 358.074 812.591 357.943 806 357.943C798.186 357.943 798.077 358.078 800.081 365.298C804.423 380.933 831.008 388.595 848.287 379.19C859.804 372.922 862.213 357.719 853.26 347.809C849.048 343.147 843.754 340.295 832.301 336.517C818.117 331.839 813.873 327.551 816.243 320.293C818 314.911 822.468 312.721 830.739 313.186C838.347 313.613 841.899 315.921 843.969 321.784L845.438 325.943H852.219C855.949 325.943 859 325.575 859 325.125C859 321.355 855.417 313.584 852.107 310.173C844.538 302.373 829.367 299.637 817.127 303.864ZM912.168 304.089C901.076 309.579 898.905 324.293 907.474 335.907L909.912 339.212L903.619 345.327C896.054 352.679 894.29 357.534 896.107 366.006C899.396 381.342 919.436 388.061 937.252 379.802L942.005 377.599L944.366 379.817C946.43 381.756 947.634 381.999 953.909 381.74L961.089 381.443L955.667 375.043L950.244 368.643L952.071 365.543C954.306 361.751 957 351.717 957 347.183V343.843L951.25 344.143C945.675 344.434 945.491 344.534 945.189 347.443C944.693 352.236 942.998 357.943 942.07 357.943C941.6 357.943 937.95 354.095 933.957 349.393L926.698 340.843L929.099 339.214C930.42 338.319 933.587 335.529 936.138 333.014C943.564 325.694 944.828 317.497 939.718 309.805C934.735 302.305 921.372 299.533 912.168 304.089ZM1160.35 303.318C1151.59 306.178 1145.19 312.511 1141.15 322.288C1136.46 333.643 1137.01 355.033 1142.25 365.443C1149.12 379.087 1162.77 385.729 1177.55 382.631C1194.54 379.072 1202.81 367.331 1203.76 345.424C1204.65 324.712 1198.46 311.218 1185.1 304.747C1179.49 302.033 1166.56 301.286 1160.35 303.318ZM1599.36 303.032C1593.79 304.647 1586.75 310.185 1584.22 314.943C1582.23 318.686 1581.91 320.429 1582.33 325.304C1583.22 335.768 1589.98 341.718 1608 347.927C1621.56 352.599 1625 355.447 1625 362.004C1625 366.947 1622.01 370.326 1616.25 371.876C1612.66 372.841 1610.18 372.745 1603.33 371.377C1599.63 370.64 1595.1 366.03 1593.98 361.87L1592.92 357.943H1586.46H1580V361.286C1580 372.98 1594.06 383.121 1610.44 383.242C1628.95 383.38 1639.85 374.4 1638.8 359.891C1637.99 348.719 1632.02 343.197 1613.99 336.943C1598.97 331.736 1596 329.461 1596 323.144C1596 316.456 1602.47 312.447 1612.14 313.147C1617.68 313.548 1618.62 313.952 1621.65 317.253C1623.59 319.377 1625 321.969 1625 323.428C1625 325.879 1625.18 325.943 1632.13 325.943H1639.26L1638.58 321.693C1637.3 313.564 1630.82 306.597 1621.71 303.546C1616.53 301.808 1604.54 301.533 1599.36 303.032ZM482.531 307.157C481.603 309.475 475.732 324.913 469.484 341.463C463.236 358.013 457.203 373.891 456.077 376.748L454.029 381.943H461.286H468.543L471.636 373.193L474.729 364.443L490.219 364.168L505.709 363.894L508.937 372.918L512.165 381.943H519.199C525.604 381.943 526.189 381.774 525.739 380.054C525.467 379.014 518.824 361.239 510.976 340.554L496.706 302.943H490.462H484.217L482.531 307.157ZM671 342.443V381.943H697.552H724.105L723.802 376.693L723.5 371.443L704.25 371.171L685 370.9V358.921V346.943H701.5H718V341.443V335.943H701.5H685V324.943V313.943H704H723V308.443V302.943H697H671V342.443ZM730 308.443V313.943H742.5H755V347.943V381.943H762H769V347.943V313.943H781.5H794V308.443V302.943H762H730V308.443ZM998 342.443V381.943H1005H1012V367.443V352.943H1022.79C1041.23 352.943 1050.77 349.056 1055.46 339.637C1060.29 329.959 1058.5 318.388 1051.03 310.915C1044.08 303.964 1039.7 302.943 1016.89 302.943H998V342.443ZM1070 342.443V381.943H1077H1084V366.943V351.943H1091.85H1099.71L1107.47 366.943L1115.22 381.943H1122.61C1126.68 381.943 1130 381.663 1130 381.32C1130 380.977 1126.12 373.532 1121.38 364.775C1116.64 356.018 1112.92 348.744 1113.13 348.611C1120.44 343.855 1122.23 342.114 1124.47 337.634C1129.09 328.365 1127.52 317.196 1120.63 310.307C1114.38 304.065 1109.39 302.943 1087.82 302.943H1070V342.443ZM1218 342.443V381.943H1225H1232V367.573V353.204L1245.25 352.725C1263.27 352.075 1270.44 348.865 1275.02 339.396C1279.73 329.663 1277.25 316.985 1269.22 309.749C1262.85 304.015 1257.67 302.943 1236.32 302.943H1218V342.443ZM1290 342.443V381.943H1316.05H1342.1L1341.8 376.693L1341.5 371.443L1322.25 371.171L1303 370.9V358.921V346.943H1319.5H1336V341.443V335.943H1319.5H1303V324.943V313.943H1322H1341V308.443V302.943H1315.5H1290V342.443ZM1353 342.353V381.943H1360H1367V366.943V351.943L1374.75 351.962L1382.5 351.982L1390.29 366.962L1398.08 381.943H1405.54C1409.64 381.943 1413 381.735 1413 381.481C1413 381.227 1409.18 373.997 1404.5 365.414C1399.82 356.832 1396.03 349.502 1396.06 349.126C1396.1 348.75 1398 347.082 1400.29 345.418C1408.48 339.466 1411.37 331.523 1409.16 320.989C1407.74 314.219 1403.9 309.308 1397.41 305.979C1392.74 303.579 1391.55 303.441 1372.75 303.11L1353 302.762V342.353ZM1415 308.443V313.943H1427H1439V347.943V381.943H1446H1453V347.943V313.943H1465.5H1478V308.443V302.943H1446.5H1415V308.443ZM1489 342.443V381.943H1496H1503V342.443V302.943H1496H1489V342.443ZM1520 342.443V381.943H1546H1572V376.443V370.943H1553H1534V358.943V346.943H1550.5H1567V341.443V335.943H1550.5H1534V324.943V313.943H1553H1572V308.443V302.943H1546H1520V342.443ZM919.4 313.368C917.694 314.112 916.007 315.482 915.65 316.414C914.232 320.108 915.037 325.534 917.553 329.236L920.106 332.993L923.155 331.218C930.559 326.907 933.309 319.252 929 314.943C927.9 313.843 926.587 312.943 926.082 312.943C925.577 312.943 924.564 312.734 923.832 312.479C923.099 312.225 921.105 312.624 919.4 313.368ZM1165.26 314.009C1160.18 315.556 1155.28 321.16 1153.42 327.558C1150.93 336.147 1151.73 354.809 1154.87 361.22C1157.96 367.544 1162.75 371.117 1168.93 371.71C1183.76 373.135 1190.65 362.665 1189.8 340.033C1189.41 329.981 1189 327.76 1186.71 323.297C1185.15 320.247 1182.68 317.292 1180.67 316.045C1176.62 313.543 1169.76 312.637 1165.26 314.009ZM1012.22 327.693L1012.5 341.443L1020.5 341.754C1031.82 342.194 1036.58 341.294 1040.24 338.021C1042.93 335.618 1043.4 334.44 1043.73 329.342C1044.02 324.766 1043.68 322.752 1042.17 320.363C1039.03 315.36 1034.7 313.943 1022.57 313.943H1011.94L1012.22 327.693ZM1084 327.559V341.176L1093.75 340.753C1108.3 340.123 1113 336.675 1113 326.628C1113 317.671 1107.13 313.943 1093.03 313.943H1084V327.559ZM1232 327.943V341.943L1241.25 341.937C1252.79 341.93 1257.14 340.751 1260.54 336.714C1262.94 333.864 1263.17 332.91 1262.81 327.3C1262.14 316.719 1257.82 313.943 1242.03 313.943H1232V327.943ZM1367 327.559V341.176L1376.75 340.753C1387.77 340.276 1392.08 338.628 1394.48 333.976C1397.97 327.232 1395.04 318.111 1388.51 315.383C1386.37 314.49 1381.63 313.943 1376.03 313.943H1367V327.559ZM489.156 323.054C487.445 327.594 479 352.095 479 352.518C479 352.752 483.95 352.943 490 352.943C498.792 352.943 501 352.66 501 351.535C501 350.08 491.255 321.864 490.487 321.097C490.25 320.86 489.651 321.741 489.156 323.054ZM912.616 351.946C909.716 355.156 909 356.75 909 359.996C909 370.721 918.837 375.923 929.75 370.97C932.087 369.909 934 368.765 934 368.428C934 367.775 917.117 347.943 916.562 347.943C916.381 347.943 914.605 349.744 912.616 351.946Z" fill="black"/>
</g>
</svg>
